<?xml version="1.0" encoding="UTF-8" standalone="no"?>
<svg
   width="46.751999"
   height="46.751999"
   viewBox="0 0 46.751999 46.752"
   version="1.1"
   id="svg18"
   sodipodi:docname="bathtub.svg"
   inkscape:version="1.1.2 (0a00cf5339, 2022-02-04)"
   xmlns:inkscape="http://www.inkscape.org/namespaces/inkscape"
   xmlns:sodipodi="http://sodipodi.sourceforge.net/DTD/sodipodi-0.dtd"
   xmlns="http://www.w3.org/2000/svg"
   xmlns:svg="http://www.w3.org/2000/svg">
  <defs
     id="defs22" />
  <sodipodi:namedview
     id="namedview20"
     pagecolor="#505050"
     bordercolor="#eeeeee"
     borderopacity="1"
     inkscape:pageshadow="0"
     inkscape:pageopacity="0"
     inkscape:pagecheckerboard="0"
     showgrid="false"
     inkscape:zoom="10.053046"
     inkscape:cx="22.480748"
     inkscape:cy="23.375999"
     inkscape:window-width="1920"
     inkscape:window-height="1011"
     inkscape:window-x="0"
     inkscape:window-y="0"
     inkscape:window-maximized="1"
     inkscape:current-layer="svg18" />
  <g
     id="bathtube"
     transform="translate(-9.198312)">
    <path
       id="Path_43"
       data-name="Path 43"
       d="m 120.534,194.271 a 4.265,4.265 0 0 1 6.4,-4.43 c 0.02,-0.1 0.043,-0.2 0.073,-0.3 a 3.5,3.5 0 0 1 6.666,-0.169 4.262,4.262 0 0 1 6.755,1.58 3.1,3.1 0 0 1 4.253,-1.038 3.812,3.812 0 1 1 7.472,1.041 c 0,0 -3.716,5.8 -17.412,5.8 -12.141,0.001 -14.207,-2.484 -14.207,-2.484 z"
       transform="translate(-100.161,-169.088)"
       fill="#cbf4ff" />
    <path
       id="Path_44"
       data-name="Path 44"
       d="m 73.983,272.61 -2.421,11.929 a 7.535,7.535 0 0 1 -7.394,6.2 h -21.01 a 7.535,7.535 0 0 1 -7.394,-6.2 l -2.42,-11.929 c 0,0 6.531,4.51 19.68,4.51 13.149,0 20.959,-4.51 20.959,-4.51 z"
       transform="translate(-20.999,-247.717)"
       fill="#fcefde" />
    <path
       id="Path_45"
       data-name="Path 45"
       d="m 335.344,274.52 -2.033,10.019 a 7.535,7.535 0 0 1 -7.394,6.2 h 4.109 a 7.535,7.535 0 0 0 7.394,-6.2 l 2.421,-11.929 a 28.017,28.017 0 0 1 -4.497,1.91 z"
       transform="translate(-286.858,-247.717)"
       fill="#fce4c6" />
    <path
       id="Path_46"
       data-name="Path 46"
       d="m 39.235,245.389 c -7.943,0 -15.435,-1.951 -21.1,-5.495 a 1.4333825,1.4333825 0 1 1 1.521,-2.43 c 5.4,3.378 12.486,5.067 19.575,5.067 7.089,0 14.178,-1.689 19.575,-5.067 a 1.4333825,1.4333825 0 1 1 1.521,2.43 c -5.657,3.544 -13.149,5.495 -21.092,5.495 z"
       transform="translate(-6.571,-215.583)"
       fill="#e7c33c" />
    <path
       id="Path_47"
       data-name="Path 47"
       d="M 133.431,57.34 124.1,59.3 a 0.075,0.075 0 0 1 -0.089,-0.058 3.32,3.32 0 0 1 2.565,-3.932 l 2.985,-0.628 a 3.32,3.32 0 0 1 3.932,2.565 v 0 a 0.075,0.075 0 0 1 -0.062,0.093 z"
       transform="translate(-103.318,-49.627)"
       fill="#e7c33c" />
    <circle
       id="Ellipse_2"
       data-name="Ellipse 2"
       cx="1.624"
       cy="1.624"
       r="1.624"
       transform="rotate(-45,27.126047,-7.0469765)"
       fill="#eed05e" />
    <path
       id="Path_48"
       data-name="Path 48"
       d="m 74.019,438.817 2.027,-2.027 a 1.147,1.147 0 1 1 1.621,1.621 l -2.73,2.73 a 5.212,5.212 0 0 1 -3.685,1.526 h -3.905 a 1.147,1.147 0 0 1 0,-2.293 H 70.6 a 4.508,4.508 0 0 0 3.234,-1.368 z"
       transform="translate(-50.855,-396.601)"
       fill="#e7c33c" />
    <path
       id="Path_49"
       data-name="Path 49"
       d="m 320.264,438.817 -2.027,-2.027 a 1.147,1.147 0 1 0 -1.621,1.621 l 2.73,2.73 a 5.212,5.212 0 0 0 3.685,1.526 h 3.905 a 1.147,1.147 0 0 0 0,-2.293 h -3.253 a 4.508,4.508 0 0 1 -3.234,-1.368 z"
       transform="translate(-278.1,-396.601)"
       fill="#e7c33c" />
    <circle
       id="Ellipse_3"
       data-name="Ellipse 3"
       cx="1.777"
       cy="1.777"
       r="1.777"
       transform="translate(39.913,13.786)"
       fill="#cbf4ff" />
    <circle
       id="Ellipse_4"
       data-name="Ellipse 4"
       cx="1.312"
       cy="1.312"
       r="1.312"
       transform="translate(46.2,10.151)"
       fill="#cbf4ff" />
    <path
       id="Path_50"
       data-name="Path 50"
       d="M 54.8,21.973 A 2.108,2.108 0 0 0 53,20.979 c -0.057,0 -0.114,0 -0.171,0.008 a 4.5,4.5 0 0 0 -8.813,-1.435 q -0.041,0.14 -0.072,0.283 a 3.8,3.8 0 0 0 -3.553,0.825 4.949,4.949 0 0 0 -6.614,-1.414 4.182,4.182 0 0 0 -7.418,0.543 q -0.2,-0.08 -0.416,-0.141 A 4.953,4.953 0 0 0 19.619,24.2 31.7,31.7 0 0 1 15.96,22.69 v -3.383 a 2.289,2.289 0 0 0 0.343,-0.145 l 0.67,0.67 a 0.685,0.685 0 0 0 0.968,-0.968 l -0.67,-0.67 a 2.316,2.316 0 0 0 0,-2.151 l 0.67,-0.67 a 0.685,0.685 0 0 0 -0.968,-0.968 l -0.67,0.67 a 2.294,2.294 0 0 0 -0.39,-0.16 V 5.367 a 4,4 0 0 1 7.961,-0.51 L 23.04,5.033 A 3.934,3.934 0 0 0 20,9.687 0.721,0.721 0 0 0 20.842,10.363 L 25.953,9.287 A 0.685,0.685 0 0 0 25.671,7.947 L 21.285,8.87 a 2.564,2.564 0 0 1 2.033,-2.5 L 26.45,5.711 a 2.562,2.562 0 0 1 2.87,1.468 l -0.267,0.056 a 0.685,0.685 0 0 0 0.282,1.34 l 0.992,-0.209 a 0.73,0.73 0 0 0 0.5,-0.958 3.934,3.934 0 0 0 -4.654,-3.036 l -0.953,0.2 A 5.367,5.367 0 0 0 14.545,5.365 v 9.547 a 2.3,2.3 0 0 0 -0.391,0.161 l -0.67,-0.67 a 0.685,0.685 0 0 0 -0.968,0.968 l 0.67,0.67 a 2.319,2.319 0 0 0 0,2.15 l -0.67,0.67 c -0.613,0.613 0.341,1.6 0.968,0.968 l 0.67,-0.67 a 2.3,2.3 0 0 0 0.438,0.175 V 21.97 Q 14.011,21.645 13.454,21.299 C 11.127,19.847 8.9,23.45 11.2,24.892 c 0.166,0.1 0.334,0.206 0.5,0.307 l 2.386,11.759 a 8.355,8.355 0 0 0 4.945,6.131 h -2.539 a 1.832,1.832 0 0 0 0,3.663 H 20.4 a 5.858,5.858 0 0 0 4.17,-1.727 L 25.992,43.6 c 0.106,0.067 13.452,0.107 13.452,0.107 l 1.318,1.318 a 5.857,5.857 0 0 0 4.169,1.727 0.685,0.685 0 0 0 0,-1.37 4.5,4.5 0 0 1 -3.2,-1.326 L 39,41.327 c -0.408,-0.408 0.226,-1.08 0.653,-0.653 l 2.2,2.21 a 5.222,5.222 0 0 0 3.726,1.575 h 3.253 a 0.462,0.462 0 0 1 0,0.923 0.685,0.685 0 0 0 0,1.37 1.8315,1.8315 0 0 0 0,-3.663 h -2.543 a 8.355,8.355 0 0 0 4.945,-6.131 L 53.62,25.2 q 0.254,-0.152 0.5,-0.308 A 2.12,2.12 0 0 0 54.8,21.973 Z M 14.563,17.782 a 0.939,0.939 0 1 1 1.329,0 0.94,0.94 0 0 1 -1.329,0 z m 6.564,5.62 a 3.58,3.58 0 0 1 5.293,-2.063 0.685,0.685 0 0 0 1.027,-0.454 c 0.017,-0.089 0.037,-0.169 0.058,-0.243 a 2.813,2.813 0 0 1 5.361,-0.136 0.685,0.685 0 0 0 1.1,0.29 3.577,3.577 0 0 1 5.671,1.326 0.685,0.685 0 0 0 1.218,0.1 2.42,2.42 0 0 1 3.315,-0.808 0.685,0.685 0 0 0 1.039,-0.59 3.127,3.127 0 1 1 6.144,0.8 37.051,37.051 0 0 1 -18.686,4.643 41.244,41.244 0 0 1 -11.672,-1.63 3.549,3.549 0 0 1 0.132,-1.237 z M 23.6,44.056 a 4.5,4.5 0 0 1 -3.2,1.326 h -3.909 a 0.462,0.462 0 0 1 0,-0.923 h 3.253 a 5.221,5.221 0 0 0 3.726,-1.575 l 2.2,-2.21 a 0.462,0.462 0 0 1 0.653,0.653 z M 53.4,23.731 c -5.554,3.476 -12.917,5.391 -20.733,5.391 a 44.106,44.106 0 0 1 -12.229,-1.67 0.685,0.685 0 0 0 -0.38,1.316 45.478,45.478 0 0 0 12.608,1.724 42.272,42.272 0 0 0 19.379,-4.41 l -2.152,10.6 A 6.879,6.879 0 0 1 43.3,42.334 c -0.165,-0.122 -2.683,-2.629 -2.683,-2.629 -1.692,-1.692 -4.286,0.98 -2.548,2.632 H 27.255 c 1.716,-1.669 -0.851,-4.328 -2.548,-2.632 0,0 -2.518,2.507 -2.683,2.629 A 6.879,6.879 0 0 1 15.437,36.686 L 13.284,26.08 a 34.316,34.316 0 0 0 3.146,1.446 0.68503011,0.68503011 0 0 0 0.509,-1.272 31.558,31.558 0 0 1 -5.008,-2.523 0.749,0.749 0 0 1 0.794,-1.269 c 5.894,3.689 13.05,5.171 19.939,5.171 7.53,0 14.611,-1.837 19.939,-5.171 a 0.7492613,0.7492613 0 0 1 0.797,1.269 z" />
    <path
       id="Path_51"
       data-name="Path 51"
       d="m 330.217,148.4 a 2.461,2.461 0 1 0 -2.461,-2.461 2.464,2.464 0 0 0 2.461,2.461 z m 0,-3.553 a 1.092,1.092 0 1 1 -1.092,1.092 1.093,1.093 0 0 1 1.092,-1.089 z"
       transform="translate(-288.528,-130.379)" />
    <path
       id="Path_52"
       data-name="Path 52"
       d="m 398.6,107.664 a 2,2 0 1 0 -2,-2 2,2 0 0 0 2,2 z m 0,-2.624 a 0.627,0.627 0 1 1 -0.627,0.627 0.628,0.628 0 0 1 0.627,-0.626 z"
       transform="translate(-351.087,-94.205)" />
    <path
       id="Path_53"
       data-name="Path 53"
       d="m 144.486,240.941 a 2.74,2.74 0 0 0 -4.052,1.58 0.685,0.685 0 1 0 1.315,0.382 1.371,1.371 0 0 1 2.028,-0.79 0.685,0.685 0 1 0 0.709,-1.172 z"
       transform="translate(-118.285,-218.578)" />
    <path
       id="Path_54"
       data-name="Path 54"
       d="m 283.758,232.915 a 0.538,0.538 0 0 1 0.781,0.343 0.685,0.685 0 1 0 1.33,-0.327 1.907,1.907 0 0 0 -2.772,-1.216 0.685,0.685 0 0 0 0.66,1.2 z"
       transform="translate(-247.625,-210.342)" />
  </g>
</svg>
