<?xml version="1.0" encoding="UTF-8" standalone="no"?>
<svg
   width="50.995998"
   height="50.5"
   viewBox="0 0 50.995998 50.5"
   version="1.1"
   id="svg14"
   sodipodi:docname="bed.svg"
   inkscape:version="1.1.2 (0a00cf5339, 2022-02-04)"
   inkscape:export-filename="/home/mayank-pop/StudioProjects/smart_home/assets/bed.png"
   inkscape:export-xdpi="200"
   inkscape:export-ydpi="200"
   xmlns:inkscape="http://www.inkscape.org/namespaces/inkscape"
   xmlns:sodipodi="http://sodipodi.sourceforge.net/DTD/sodipodi-0.dtd"
   xmlns="http://www.w3.org/2000/svg"
   xmlns:svg="http://www.w3.org/2000/svg">
  <defs
     id="defs18" />
  <sodipodi:namedview
     id="namedview16"
     pagecolor="#505050"
     bordercolor="#eeeeee"
     borderopacity="1"
     inkscape:pageshadow="0"
     inkscape:pageopacity="0"
     inkscape:pagecheckerboard="0"
     showgrid="false"
     inkscape:zoom="11.058824"
     inkscape:cx="20.61702"
     inkscape:cy="26.132978"
     inkscape:window-width="1920"
     inkscape:window-height="1011"
     inkscape:window-x="0"
     inkscape:window-y="0"
     inkscape:window-maximized="1"
     inkscape:current-layer="svg14"
     fit-margin-top="0"
     fit-margin-left="0"
     fit-margin-right="0"
     fit-margin-bottom="0" />
  <g
     id="bed"
     transform="translate(-2,-2.9999999)">
    <path
       id="Path_5"
       data-name="Path 5"
       d="M 6,16 H 50.2 V 38.95 H 6 Z"
       transform="translate(-0.6,-1.35)"
       fill="#ed539d" />
    <g
       id="Group_1"
       data-name="Group 1"
       transform="translate(4.55,7.85)">
      <path
         id="Path_6"
         data-name="Path 6"
         d="M 57.1,10.55 V 14.8 H 52 v -4.25 a 2.55,2.55 0 0 1 5.1,0 z"
         transform="translate(-12.05,-8)"
         fill="#b39a7c" />
      <path
         id="Path_7"
         data-name="Path 7"
         d="M 11.1,10.55 V 14.8 H 6 v -4.25 a 2.55,2.55 0 1 1 5.1,0 z"
         transform="translate(-5.15,-8)"
         fill="#b39a7c" />
      <path
         id="Path_8"
         data-name="Path 8"
         d="m 58.25,50 v 5.1 H 55.7 L 54,50 Z"
         transform="translate(-12.35,-14.3)"
         fill="#b39a7c" />
      <path
         id="Path_9"
         data-name="Path 9"
         d="m 9.25,50 -1.7,5.1 H 5 V 50 Z"
         transform="translate(-5,-14.3)"
         fill="#b39a7c" />
    </g>
    <path
       id="Path_10"
       data-name="Path 10"
       d="m 3,42 h 49.3 v 6.8 H 3 Z"
       transform="translate(-0.15,-5.25)"
       fill="#ffda44" />
    <path
       id="Path_11"
       data-name="Path 11"
       d="m 49.3,25.7 v 5.1 H 34 V 25.7 A 1.705,1.705 0 0 1 35.7,24 h 11.9 a 1.705,1.705 0 0 1 1.7,1.7 z"
       transform="translate(-4.8,-2.55)"
       fill="#d8d7da" />
    <path
       id="Path_12"
       data-name="Path 12"
       d="m 27.3,25.7 v 5.1 H 12 V 25.7 A 1.705,1.705 0 0 1 13.7,24 h 11.9 a 1.705,1.705 0 0 1 1.7,1.7 z"
       transform="translate(-1.5,-2.55)"
       fill="#d8d7da" />
    <path
       id="Path_13"
       data-name="Path 13"
       d="m 50.9,37.1 v 3.4 H 5 V 37.1 A 5.015,5.015 0 0 1 5.85,34.287 5.086,5.086 0 0 1 10.1,32 h 35.7 a 5.086,5.086 0 0 1 4.25,2.286 5.015,5.015 0 0 1 0.85,2.814 z"
       transform="translate(-0.45,-3.75)"
       fill="#5aaae7" />
    <path
       id="Path_14"
       data-name="Path 14"
       d="M 52.15,35.9 H 51.3 V 33.35 A 5.922,5.922 0 0 0 50.45,30.298 V 10.4 a 3.4,3.4 0 1 0 -6.8,0 v 3.4 h -32.3 v -3.4 a 3.4,3.4 0 1 0 -6.8,0 V 30.3 A 5.922,5.922 0 0 0 3.7,33.35 V 35.9 H 2.85 A 0.85,0.85 0 0 0 2,36.75 v 6.8 A 0.85,0.85 0 0 0 2.85,44.4 H 3.7 v 4.25 A 0.85,0.85 0 0 0 4.55,49.5 H 7.1 a 0.862,0.862 0 0 0 0.807,-0.578 l 1.5,-4.522 h 36.181 l 1.5,4.522 a 0.862,0.862 0 0 0 0.808,0.578 h 2.55 a 0.85,0.85 0 0 0 0.85,-0.85 V 44.4 h 0.85 a 0.85,0.85 0 0 0 0.85,-0.85 v -6.8 A 0.85,0.85 0 0 0 52.15,35.9 Z m -6.8,-25.5 a 1.7,1.7 0 1 1 3.4,0 v 3.4 h -3.4 z m -39.1,0 a 1.7,1.7 0 1 1 3.4,0 v 3.4 h -3.4 z m 0,5.1 h 42.5 V 28.471 A 5.939,5.939 0 0 0 45.35,27.4 V 23.15 A 2.558,2.558 0 0 0 42.8,20.6 H 30.9 a 2.558,2.558 0 0 0 -2.55,2.55 v 4.25 h -1.7 V 23.15 A 2.558,2.558 0 0 0 24.1,20.6 H 12.2 a 2.558,2.558 0 0 0 -2.55,2.55 v 4.25 a 5.939,5.939 0 0 0 -3.4,1.071 z m 37.4,7.65 V 27.4 H 30.05 V 23.15 A 0.85,0.85 0 0 1 30.9,22.3 h 11.9 a 0.85,0.85 0 0 1 0.85,0.85 z m -18.7,0 V 27.4 H 11.35 V 23.15 A 0.85,0.85 0 0 1 12.2,22.3 h 11.9 a 0.85,0.85 0 0 1 0.85,0.85 z M 5.4,33.35 A 4.25,4.25 0 0 1 9.65,29.1 h 35.7 a 4.25,4.25 0 0 1 4.25,4.25 V 35.9 H 5.4 Z M 6.488,47.8 H 5.4 v -3.4 h 2.219 z m 43.112,0 H 48.512 L 47.381,44.4 H 49.6 Z m 1.7,-5.1 H 3.7 v -5.1 h 47.6 z" />
  </g>
</svg>
