<?xml version="1.0" encoding="UTF-8" standalone="no"?>
<!-- Generator: Adobe Illustrator 19.0.0, SVG Export Plug-In . SVG Version: 6.00 Build 0)  -->

<svg
   version="1.1"
   id="Capa_1"
   x="0px"
   y="0px"
   viewBox="0 0 52.987209 52.987209"
   xml:space="preserve"
   sodipodi:docname="default.svg"
   width="52.987209"
   height="52.987209"
   inkscape:version="1.1.2 (0a00cf5339, 2022-02-04)"
   inkscape:export-filename="/home/mayank-pop/StudioProjects/smart_home/assets/default.png"
   inkscape:export-xdpi="200"
   inkscape:export-ydpi="200"
   xmlns:inkscape="http://www.inkscape.org/namespaces/inkscape"
   xmlns:sodipodi="http://sodipodi.sourceforge.net/DTD/sodipodi-0.dtd"
   xmlns="http://www.w3.org/2000/svg"
   xmlns:svg="http://www.w3.org/2000/svg"><defs
   id="defs53" /><sodipodi:namedview
   id="namedview51"
   pagecolor="#505050"
   bordercolor="#eeeeee"
   borderopacity="1"
   inkscape:pageshadow="0"
   inkscape:pageopacity="0"
   inkscape:pagecheckerboard="0"
   showgrid="false"
   fit-margin-top="0"
   fit-margin-left="0"
   fit-margin-right="0"
   fit-margin-bottom="0"
   inkscape:zoom="12.827356"
   inkscape:cx="25.024643"
   inkscape:cy="25.258518"
   inkscape:window-width="1920"
   inkscape:window-height="1011"
   inkscape:window-x="0"
   inkscape:window-y="0"
   inkscape:window-maximized="1"
   inkscape:current-layer="Capa_1" />
<g
   id="XMLID_2_"
   transform="matrix(0.13944002,0,0,0.13944002,0.10679874,0)">
	<path
   id="XMLID_4_"
   style="fill:#ffda44"
   d="m 129.48,311.289 h 121.026 c 2.319,-18.419 11.726,-26.242 23.471,-37.644 16.82,-16.329 37.753,-36.65 37.753,-87.096 0,-32.261 -12.805,-61.618 -36.056,-82.665 C 253.249,83.585 222.823,72.406 190,72.406 c -32.823,0 -63.249,11.179 -85.673,31.478 -23.251,21.047 -36.056,50.404 -36.056,82.665 0,50.521 20.977,70.961 37.833,87.385 11.659,11.36 21.017,19.273 23.376,37.355 z" />
	<g
   id="XMLID_5_">
		<rect
   id="XMLID_6_"
   x="175"
   style="fill:#ffeb99"
   width="30"
   height="40"
   y="0" />
	</g>
	<g
   id="XMLID_7_">
		
			<rect
   id="XMLID_8_"
   x="265"
   y="26.972"
   transform="matrix(0.8321,0.5547,-0.5547,0.8321,71.9839,-147.7546)"
   style="fill:#ffe477"
   width="30"
   height="36.056" />
	</g>
	<g
   id="XMLID_9_">
		
			<rect
   id="XMLID_10_"
   x="327.5"
   y="94.821999"
   transform="matrix(0.1414,0.99,-0.99,0.1414,405.4374,-242.4667)"
   style="fill:#ffe477"
   width="30"
   height="35.355" />
	</g>
	<g
   id="XMLID_11_">
		
			<rect
   id="XMLID_12_"
   x="19.822001"
   y="97.5"
   transform="matrix(0.9899,0.1414,-0.1414,0.9899,16.2868,-4.1726)"
   style="fill:#ffeb99"
   width="35.355"
   height="30" />
	</g>
	<g
   id="XMLID_13_">
		
			<rect
   id="XMLID_14_"
   x="81.972"
   y="30"
   transform="matrix(0.5547,0.8321,-0.8321,0.5547,81.9722,-63.1665)"
   style="fill:#ffeb99"
   width="36.056"
   height="30" />
	</g>
	<path
   id="XMLID_15_"
   style="fill:#ffcd00"
   d="M 275.673,103.884 C 253.249,83.585 222.823,72.406 190,72.406 v 238.883 h 60.506 c 2.319,-18.419 11.726,-26.242 23.47,-37.644 16.82,-16.329 37.753,-36.65 37.753,-87.096 0.001,-32.261 -12.804,-61.618 -36.056,-82.665 z" />
	<rect
   id="XMLID_35_"
   x="148.21201"
   y="345.64499"
   style="fill:#00d7df"
   width="83.575996"
   height="34.355" />
	<rect
   id="XMLID_34_"
   x="133.677"
   y="319.87799"
   style="fill:#00d7df"
   width="112.646"
   height="34.355" />
	<rect
   id="XMLID_33_"
   x="119.142"
   y="294.11099"
   style="fill:#00d7df"
   width="141.716"
   height="34.355" />
	<polygon
   id="XMLID_16_"
   style="fill:#00969b"
   points="190,294.111 190,380 231.788,380 231.788,354.233 246.323,354.233 246.323,328.467 260.858,328.467 260.858,294.111 " />
	<rect
   id="XMLID_17_"
   x="190"
   style="fill:#ffe477"
   width="15"
   height="40"
   y="0" />
</g>
<g
   id="g20"
   transform="translate(-17.880098)">
</g>
<g
   id="g22"
   transform="translate(-17.880098)">
</g>
<g
   id="g24"
   transform="translate(-17.880098)">
</g>
<g
   id="g26"
   transform="translate(-17.880098)">
</g>
<g
   id="g28"
   transform="translate(-17.880098)">
</g>
<g
   id="g30"
   transform="translate(-17.880098)">
</g>
<g
   id="g32"
   transform="translate(-17.880098)">
</g>
<g
   id="g34"
   transform="translate(-17.880098)">
</g>
<g
   id="g36"
   transform="translate(-17.880098)">
</g>
<g
   id="g38"
   transform="translate(-17.880098)">
</g>
<g
   id="g40"
   transform="translate(-17.880098)">
</g>
<g
   id="g42"
   transform="translate(-17.880098)">
</g>
<g
   id="g44"
   transform="translate(-17.880098)">
</g>
<g
   id="g46"
   transform="translate(-17.880098)">
</g>
<g
   id="g48"
   transform="translate(-17.880098)">
</g>
</svg>
