<?xml version="1.0" encoding="UTF-8" standalone="no"?>
<svg
   id="house"
   width="48"
   height="48"
   viewBox="0 0 48 48"
   version="1.1"
   sodipodi:docname="house.svg"
   inkscape:export-filename="/home/mayank-pop/StudioProjects/smart_home/assets/house.png"
   inkscape:export-xdpi="200"
   inkscape:export-ydpi="200"
   inkscape:version="1.1.2 (0a00cf5339, 2022-02-04)"
   xmlns:inkscape="http://www.inkscape.org/namespaces/inkscape"
   xmlns:sodipodi="http://sodipodi.sourceforge.net/DTD/sodipodi-0.dtd"
   xmlns="http://www.w3.org/2000/svg"
   xmlns:svg="http://www.w3.org/2000/svg">
  <defs
     id="defs15" />
  <sodipodi:namedview
     id="namedview13"
     pagecolor="#505050"
     bordercolor="#eeeeee"
     borderopacity="1"
     inkscape:pageshadow="0"
     inkscape:pageopacity="0"
     inkscape:pagecheckerboard="0"
     showgrid="false"
     inkscape:zoom="16.291667"
     inkscape:cx="24"
     inkscape:cy="24"
     inkscape:window-width="1920"
     inkscape:window-height="1011"
     inkscape:window-x="0"
     inkscape:window-y="0"
     inkscape:window-maximized="1"
     inkscape:current-layer="house" />
  <rect
     id="Rectangle_7"
     data-name="Rectangle 7"
     width="5.5"
     height="9.6"
     transform="translate(35.9 6.9)"
     fill="#f05540" />
  <rect
     id="Rectangle_8"
     data-name="Rectangle 8"
     width="9.7"
     height="5.2"
     transform="translate(33.8 2)"
     fill="#f3705a" />
  <path
     id="Path_96"
     data-name="Path 96"
     d="M44.8,86.8v22.1H84V86.8L64.4,67.2h0C56.8,74.9,52.5,79.2,44.8,86.8Z"
     transform="translate(-40.6 -60.9)"
     fill="#ffd15c" />
  <path
     id="Path_97"
     data-name="Path 97"
     d="M84.1,86.8,64.5,67.2C60.6,71,57.6,74,54.6,77l-9.8,9.8v4.5L64.4,71.7,84,91.3v.6h0V86.8h.1Z"
     transform="translate(-40.6 -60.9)"
     fill="#f7b64c" />
  <path
     id="Path_98"
     data-name="Path 98"
     d="M102.467,342.834h-11.8v-11.6a5.911,5.911,0,0,1,5.9-5.9h0a5.911,5.911,0,0,1,5.9,5.9Z"
     transform="translate(-82.167 -294.834)"
     fill="#415a6b" />
  <rect
     id="Rectangle_9"
     data-name="Rectangle 9"
     width="15.4"
     height="13.5"
     transform="translate(23.8 30.5)"
     fill="#344a5e" />
  <g
     id="Group_14"
     data-name="Group 14"
     transform="translate(25.4 32.1)">
    <rect
       id="Rectangle_10"
       data-name="Rectangle 10"
       width="5.3"
       height="10.3"
       fill="#8ad7f8" />
    <rect
       id="Rectangle_11"
       data-name="Rectangle 11"
       width="5.3"
       height="10.3"
       transform="translate(6.9)"
       fill="#8ad7f8" />
  </g>
  <path
     id="Path_99"
     data-name="Path 99"
     d="M47.1,21.8,26.2.9a3.262,3.262,0,0,0-4.5,0L.9,21.8a3.262,3.262,0,0,0,0,4.5,3.263,3.263,0,0,0,4.5,0L24,7.7,42.6,26.3a3.182,3.182,0,0,0,4.5-4.5Z"
     transform="translate(0 0)"
     fill="#f3705a" />
</svg>
